<?xml version="1.0" standalone="no"?>
<!DOCTYPE svg PUBLIC "-//W3C//DTD SVG 1.1//EN" "http://www.w3.org/Graphics/SVG/1.1/DTD/svg11.dtd">
<svg xmlns="http://www.w3.org/2000/svg" version="1.0" width="296" height="170" viewBox="0 0 296.000000 170.000000" preserveAspectRatio="xMidYMid meet" transform="rotate(0) scale(1, 1)">

<g transform="translate(0.000000,170.000000) scale(0.100000,-0.100000)" fill="#10243c" stroke="none">
<path d="M656 1190 c-66 -26 -122 -82 -146 -147 -24 -64 -25 -95 -5 -154 36&#10;-106 128 -169 248 -169 l67 0 0 45 0 45 -57 0 c-71 0 -119 22 -151 70 -20 29&#10;-23 45 -20 90 6 84 51 133 134 145 58 9 122 -27 152 -85 20 -40 22 -59 22&#10;-185 0 -158 -10 -192 -70 -232 -52 -36 -93 -39 -149 -12 l-48 24 -26 -25 c-15&#10;-14 -27 -30 -27 -36 0 -6 24 -24 53 -40 130 -71 291 -7 342 135 21 60 21 321&#10;0 380 -46 131 -195 201 -319 151z"/>
<path d="M1216 1190 c-60 -23 -112 -71 -137 -125 -15 -33 -19 -65 -19 -187 l0&#10;-148 45 0 45 0 0 135 c0 144 6 170 52 212 19 18 100 46 110 38 2 -1 19 -5 38&#10;-9 33 -6 37 -3 54 28 10 19 16 39 12 44 -7 12 -86 32 -123 32 -15 -1 -50 -10&#10;-77 -20z"/>
<path d="M1600 1195 c-148 -46 -216 -229 -134 -361 77 -125 253 -152 364 -57&#10;144 124 104 345 -74 412 -65 24 -93 25 -156 6z m155 -104 c33 -18 75 -91 75&#10;-130 0 -14 -9 -43 -20 -66 -54 -111 -221 -112 -274 -2 -66 141 82 275 219 198z"/>
<path d="M2134 1189 c-100 -38 -159 -123 -158 -229 1 -143 104 -239 257 -240&#10;l67 0 0 45 0 45 -60 0 c-69 0 -106 16 -143 59 -37 45 -44 101 -17 156 54 111&#10;198 119 267 15 22 -32 23 -40 23 -281 l0 -249 45 0 45 0 0 246 c0 165 -4 260&#10;-12 288 -18 60 -92 131 -159 150 -67 20 -92 20 -155 -5z"/>
</g>
</svg>