<?xml version="1.0" standalone="no"?>
<!DOCTYPE svg PUBLIC "-//W3C//DTD SVG 1.1//EN" "http://www.w3.org/Graphics/SVG/1.1/DTD/svg11.dtd">
<svg xmlns="http://www.w3.org/2000/svg" version="1.0" width="2159" height="1130" viewBox="0 0 2159.000000 1130.000000" preserveAspectRatio="xMidYMid meet" transform="rotate(0) scale(1, 1)">

<g transform="translate(0.000000,1130.000000) scale(0.100000,-0.100000)" fill="#10243c" stroke="none">
<path d="M20666 7495 c-57 -20 -87 -45 -114 -96 -20 -37 -23 -55 -20 -120 3&#10;-64 7 -81 30 -112 51 -65 84 -82 173 -85 74 -3 83 -1 126 26 116 74 132 240&#10;33 339 -61 61 -144 78 -228 48z"/>
<path d="M10900 6050 l0 -1430 165 0 165 0 0 493 c0 698 11 807 98 986 49 102&#10;160 215 253 259 89 42 177 62 279 62 281 0 467 -140 542 -407 22 -76 22 -94&#10;26 -735 l3 -658 169 0 170 0 0 598 c0 638 -7 778 -45 929 -74 290 -268 482&#10;-560 554 -126 32 -364 32 -476 1 -170 -46 -304 -140 -431 -302 -16 -19 -27&#10;-30 -27 -25 1 6 1 256 0 558 l-1 547 -165 0 -165 0 0 -1430z"/>
<path d="M1010 6995 l0 -295 -190 0 -190 0 0 -150 0 -150 190 0 189 0 4 -702&#10;c3 -615 5 -710 19 -757 57 -187 154 -270 358 -307 49 -9 157 -13 313 -14 l238&#10;0 -3 153 -3 152 -230 5 c-265 6 -293 13 -330 86 -19 38 -20 62 -23 712 l-2&#10;672 260 0 260 0 0 150 0 150 -260 0 -260 0 0 295 0 295 -170 0 -170 0 0 -295z"/>
<path d="M9610 6995 l0 -295 -185 0 -185 0 0 -150 0 -150 184 0 185 0 4 -692&#10;c3 -615 5 -700 20 -757 36 -131 104 -224 201 -271 96 -46 148 -53 434 -57&#10;l272 -5 0 155 0 156 -232 3 c-268 3 -292 9 -331 82 -22 41 -22 42 -25 714 l-3&#10;672 261 0 260 0 0 150 0 150 -260 0 -260 0 0 295 0 295 -170 0 -170 0 0 -295z"/>
<path d="M3055 6719 c-232 -29 -480 -158 -616 -320 -177 -210 -253 -431 -252&#10;-739 1 -319 88 -559 277 -758 88 -93 167 -150 288 -207 140 -66 232 -86 428&#10;-92 142 -4 179 -2 268 16 245 51 449 175 585 357 143 190 203 368 213 634 7&#10;167 -8 293 -52 430 -150 476 -603 746 -1139 679z m301 -304 c139 -26 284 -111&#10;372 -216 165 -199 221 -513 142 -799 -54 -191 -180 -350 -340 -428 -117 -57&#10;-184 -73 -315 -73 -130 0 -198 16 -310 70 -235 116 -375 372 -375 689 0 248&#10;67 430 215 579 66 67 98 90 166 122 142 68 289 86 445 56z"/>
<path d="M5446 6720 c-417 -66 -726 -359 -815 -773 -41 -190 -37 -444 9 -627&#10;88 -347 331 -596 669 -688 87 -24 114 -26 286 -26 169 -1 199 2 269 22 166 48&#10;315 151 407 283 23 32 44 59 47 59 3 0 2 -84 -1 -187 -4 -142 -11 -208 -27&#10;-268 -56 -220 -177 -344 -395 -407 -69 -20 -103 -23 -250 -23 -147 0 -181 3&#10;-248 23 -194 56 -316 160 -373 317 l-22 60 -171 3 -171 2 6 -42 c10 -72 63&#10;-219 100 -279 162 -267 488 -403 924 -386 493 19 786 198 905 550 54 162 55&#10;183 55 1320 l0 1047 -144 0 -144 0 -6 -37 c-3 -21 -13 -96 -22 -168 -9 -71&#10;-17 -131 -18 -133 -2 -1 -27 30 -57 70 -96 129 -245 226 -414 268 -93 24 -307&#10;34 -399 20z m401 -324 c101 -33 214 -106 282 -184 63 -71 135 -212 162 -317&#10;29 -114 36 -286 15 -403 -43 -246 -168 -427 -361 -522 -112 -55 -180 -71 -310&#10;-71 -129 0 -233 23 -328 73 -82 43 -213 173 -259 258 -125 226 -136 568 -28&#10;806 93 206 269 344 488 384 87 16 249 5 339 -24z"/>
<path d="M7912 6719 c-147 -19 -275 -67 -405 -152 -159 -105 -281 -256 -352&#10;-436 -83 -212 -103 -518 -51 -761 70 -321 287 -583 579 -699 136 -54 213 -66&#10;422 -66 226 1 289 14 455 97 93 46 116 63 205 153 59 59 116 127 138 165 44&#10;77 94 201 103 259 l7 41 -170 0 -170 0 -12 -42 c-36 -124 -152 -256 -276 -314&#10;-105 -50 -175 -65 -300 -65 -202 0 -336 52 -465 181 -117 116 -176 252 -187&#10;433 l-6 87 806 0 c725 0 805 2 811 16 11 29 6 198 -9 297 -57 381 -300 670&#10;-645 770 -147 43 -325 56 -478 36z m342 -309 c160 -41 305 -148 373 -276 34&#10;-63 73 -190 73 -236 l0 -28 -626 0 -627 0 7 48 c31 229 219 434 456 496 83 22&#10;251 20 344 -4z"/>
<path d="M13995 6720 c-323 -44 -602 -250 -736 -545 -83 -184 -118 -450 -88&#10;-685 54 -439 313 -749 718 -858 88 -24 112 -26 296 -26 233 0 296 12 450 89&#10;232 116 407 342 460 593 l7 32 -170 0 -169 0 -27 -69 c-88 -225 -291 -351&#10;-567 -352 -200 -1 -345 57 -471 189 -112 118 -175 270 -181 436 l-2 71 806 3&#10;806 2 7 70 c8 82 -8 245 -34 350 -49 191 -131 333 -268 462 -118 111 -268 187&#10;-441 223 -93 20 -301 27 -396 15z m328 -305 c171 -36 325 -151 397 -299 39&#10;-78 77 -217 65 -237 -8 -12 -1242 -12 -1249 0 -9 14 31 160 60 218 70 145 220&#10;266 389 314 76 22 245 24 338 4z"/>
<path d="M18940 6719 c-91 -11 -226 -48 -306 -85 -211 -98 -351 -277 -392&#10;-501 l-9 -53 168 0 167 0 17 49 c42 127 158 228 320 277 84 26 305 26 390 0&#10;229 -69 332 -218 323 -466 l-3 -85 -420 -5 c-355 -5 -432 -8 -500 -24 -358&#10;-80 -537 -303 -522 -651 3 -84 10 -125 29 -176 66 -177 208 -296 435 -366 82&#10;-25 101 -27 283 -27 175 -1 203 1 275 22 155 45 295 133 383 242 26 32 50 59&#10;53 59 3 1 9 -23 12 -53 6 -59 43 -140 79 -172 66 -61 162 -84 345 -84 l123 0&#10;0 155 0 155 -70 0 c-83 0 -122 17 -147 63 -16 29 -19 82 -24 602 -5 490 -8&#10;578 -22 625 -69 230 -251 405 -488 469 -139 38 -328 49 -499 30z m680 -1223&#10;c0 -301 -158 -513 -439 -588 -104 -28 -309 -30 -396 -4 -120 36 -197 93 -243&#10;180 -24 45 -27 62 -27 146 0 84 3 102 28 152 31 63 87 115 152 143 92 39 149&#10;43 543 44 l382 1 0 -74z"/>
<path d="M15560 5660 l0 -1040 165 0 165 0 0 523 c0 287 5 572 10 633 18 198&#10;79 362 172 461 91 96 193 131 406 140 l142 6 0 158 0 159 -114 0 c-150 0 -251&#10;-20 -351 -69 -81 -40 -169 -114 -231 -195 l-31 -39 -17 129 c-10 71 -20 139&#10;-23 152 -5 22 -8 22 -149 22 l-144 0 0 -1040z"/>
<path d="M20570 5660 l0 -1040 170 0 170 0 0 1040 0 1040 -170 0 -170 0 0&#10;-1040z"/>
<path d="M17165 5260 c-70 -10 -117 -32 -167 -79 -67 -61 -92 -119 -96 -224&#10;-4 -78 -1 -93 22 -141 34 -70 87 -123 155 -155 73 -34 191 -36 263 -3 61 27&#10;130 96 158 158 35 74 34 190 -1 264 -62 130 -192 201 -334 180z"/>
</g>
</svg>